# xmcd
#
# Track frame offsets: 
#        150
#        34948
#        59498
#        64718
#        89697
#        112300
#        125317
#        156033
#        175959
#        209009
#
# Disc length: 3225 seconds
#
# Revision: 1
# Processed by: cddbd v1.5.2PL0 Copyright (c) Steve Scherf et al.
# Submitted via: ExactAudioCopyFreeDBPlugin 1.0
#
DISCID=970c970a
DTITLE=Young and Company - I Like What You're Doing To Me! (2013 Remaste
DTITLE=red)
DYEAR=1980
DGENRE=Funk
TTITLE0=Strut Your Stuff
TTITLE1=Checking You Out
TTITLE2=Party Jam
TTITLE3=Got To Be Free
TTITLE4=Love Me All Night
TTITLE5=Mellow Mood
TTITLE6=Waiting On Your Love
TTITLE7=I Like What You're Doing To Me
TTITLE8=I Like What You're Doing To Me [Long Version
TTITLE9=I Like What You're Doing To Me [Instrumental Version]
EXTD=
EXTT0=
EXTT1=
EXTT2=
EXTT3=
EXTT4=
EXTT5=
EXTT6=
EXTT7=
EXTT8=
EXTT9=
PLAYORDER=
